<?xml version="1.0" encoding="utf-8"?>
<!-- Generator: Adobe Illustrator 25.2.3, SVG Export Plug-In . SVG Version: 6.00 Build 0)  -->
<svg version="1.1" id="katman_1" xmlns="http://www.w3.org/2000/svg" xmlns:xlink="http://www.w3.org/1999/xlink" x="0px" y="0px"
	 width="700px" height="700px" viewBox="0 0 700 700" style="enable-background:new 0 0 700 700;" xml:space="preserve">
<style type="text/css">
	.st0{enable-background:new    ;}
	.st1{fill:#46AE61;}
</style>
<g>
	<g class="st0">
		<path d="M219.8,642.7h3.2l-4,11.8h-3.2l-2.2-8l-2.3,8h-3.2l-4-11.8h3.3l2.3,8.6l2.3-8.6h3l2.4,8.6L219.8,642.7z"/>
		<path d="M238.5,642.7h3.2l-4,11.8h-3.2l-2.2-8l-2.3,8h-3.2l-4-11.8h3.3l2.3,8.6l2.3-8.6h3l2.4,8.6L238.5,642.7z"/>
		<path d="M257.3,642.7h3.2l-4,11.8h-3.2l-2.2-8l-2.3,8h-3.2l-4-11.8h3.3l2.3,8.6l2.3-8.6h3l2.4,8.6L257.3,642.7z"/>
		<path d="M262.9,652.1c0.3,0.3,0.4,0.6,0.4,1s-0.1,0.8-0.4,1.1s-0.6,0.4-1,0.4s-0.8-0.1-1-0.4c-0.3-0.3-0.4-0.6-0.4-1.1
			c0-0.4,0.1-0.8,0.4-1c0.3-0.3,0.6-0.4,1-0.4S262.6,651.9,262.9,652.1z"/>
		<path d="M265.1,642.7h8.8v2.5h-5.7v2.6h5.3v2.5h-5.3v4.3h-3.1L265.1,642.7L265.1,642.7z"/>
		<path d="M282.4,654.5l-1.7-3.3h-0.1h-2.2v3.3h-3.1v-11.8h5.3c1.6,0,2.8,0.4,3.6,1.1c0.9,0.7,1.3,1.7,1.3,3.1
			c0,0.9-0.2,1.7-0.5,2.3s-0.9,1.1-1.6,1.5l2.5,3.9L282.4,654.5L282.4,654.5z M278.4,648.8h2.2c0.6,0,1.1-0.2,1.5-0.5
			c0.3-0.3,0.5-0.8,0.5-1.4c0-0.6-0.2-1-0.5-1.3s-0.8-0.5-1.5-0.5h-2.2V648.8z"/>
		<path d="M287.5,642.7h9.3v2.5h-6.2v2.2h5.6v2.4h-5.6v2.2h6.4v2.5h-9.5L287.5,642.7L287.5,642.7z"/>
		<path d="M298.9,642.7h9.3v2.5H302v2.2h5.6v2.4H302v2.2h6.4v2.5h-9.5V642.7z"/>
		<path d="M316.4,645.3c-0.7-0.2-1.3-0.4-1.8-0.4c-0.4,0-0.7,0.1-0.9,0.2c-0.2,0.1-0.3,0.3-0.3,0.6s0.1,0.5,0.3,0.6
			c0.2,0.2,0.4,0.3,0.7,0.4c0.3,0.1,0.7,0.2,1.2,0.4c0.8,0.2,1.5,0.5,2,0.7s1,0.6,1.4,1.1s0.6,1.1,0.6,1.9c0,0.8-0.2,1.5-0.6,2
			c-0.4,0.6-1,1-1.7,1.3s-1.5,0.4-2.4,0.4c-1,0-2-0.2-2.9-0.5c-1-0.3-1.8-0.8-2.5-1.4l1.2-2.4c0.6,0.5,1.3,1,2.1,1.3
			s1.5,0.5,2.2,0.5c0.5,0,0.8-0.1,1.1-0.3c0.3-0.2,0.4-0.4,0.4-0.7s-0.1-0.5-0.3-0.7c-0.2-0.2-0.4-0.3-0.7-0.4
			c-0.3-0.1-0.7-0.2-1.3-0.4c-0.8-0.2-1.5-0.5-2-0.7s-1-0.6-1.4-1c-0.4-0.5-0.6-1.1-0.6-1.9c0-0.7,0.2-1.4,0.6-1.9s0.9-1,1.7-1.3
			c0.7-0.3,1.5-0.4,2.5-0.4c0.9,0,1.7,0.1,2.5,0.4c0.8,0.2,1.6,0.6,2.2,1l-1.2,2.5C317.7,645.9,317.1,645.6,316.4,645.3z"/>
		<path d="M319.9,642.7h3.3l2.9,8.5l3-8.5h3.2l-4.6,11.8h-3.2L319.9,642.7z"/>
		<path d="M341.1,648.5h2.7v4.7c-0.6,0.5-1.4,0.8-2.3,1.1s-1.8,0.4-2.6,0.4c-1.2,0-2.3-0.3-3.2-0.8s-1.7-1.3-2.3-2.2
			c-0.6-0.9-0.8-2-0.8-3.1s0.3-2.2,0.9-3.1s1.3-1.7,2.3-2.2s2.1-0.8,3.3-0.8c0.9,0,1.8,0.2,2.6,0.5c0.9,0.3,1.6,0.8,2.2,1.3
			l-1.8,2.2c-0.4-0.4-0.9-0.7-1.5-1c-0.6-0.2-1.1-0.4-1.6-0.4c-0.6,0-1.2,0.2-1.7,0.5s-0.9,0.7-1.2,1.2c-0.3,0.5-0.4,1.1-0.4,1.8
			s0.1,1.3,0.4,1.8s0.7,1,1.2,1.3s1.1,0.5,1.7,0.5s1.3-0.2,2-0.6L341.1,648.5L341.1,648.5z"/>
		<path d="M354.1,643.4c0.9,0.5,1.7,1.2,2.2,2.1c0.5,0.9,0.8,1.9,0.8,3.1c0,1.2-0.3,2.2-0.8,3.1c-0.5,0.9-1.3,1.6-2.3,2.1
			s-2.1,0.7-3.3,0.7h-5v-11.8h5.1C352.1,642.7,353.2,642.9,354.1,643.4z M352.5,651.6c0.5-0.3,0.8-0.7,1.1-1.2
			c0.3-0.5,0.4-1.1,0.4-1.8s-0.1-1.3-0.4-1.8s-0.7-0.9-1.1-1.2s-1-0.4-1.7-0.4h-1.9v6.8h2.1C351.5,652,352.1,651.9,352.5,651.6z"/>
		<path d="M367.4,643.3c1,0.5,1.7,1.3,2.3,2.2c0.6,0.9,0.8,2,0.8,3.1c0,1.2-0.3,2.2-0.8,3.1s-1.3,1.7-2.3,2.2s-2.1,0.8-3.3,0.8
			s-2.3-0.3-3.3-0.8s-1.7-1.3-2.3-2.2s-0.8-2-0.8-3.1s0.3-2.2,0.8-3.1c0.6-0.9,1.3-1.6,2.3-2.2c1-0.5,2.1-0.8,3.3-0.8
			S366.4,642.8,367.4,643.3z M362.5,645.6c-0.5,0.3-0.9,0.7-1.2,1.3s-0.4,1.1-0.4,1.8s0.1,1.2,0.4,1.8s0.7,1,1.2,1.3s1,0.5,1.6,0.5
			s1.1-0.2,1.6-0.5s0.9-0.7,1.2-1.3c0.3-0.5,0.4-1.1,0.4-1.8c0-0.6-0.1-1.2-0.4-1.8c-0.3-0.5-0.7-1-1.2-1.3s-1-0.5-1.6-0.5
			C363.6,645.1,363,645.3,362.5,645.6z"/>
		<path d="M386.3,642.7h3.2l-4,11.8h-3.2l-2.2-8l-2.3,8h-3.2l-4-11.8h3.3l2.3,8.6l2.3-8.6h3l2.4,8.6L386.3,642.7z"/>
		<path d="M398.7,642.7h2.9v11.8h-2.7l-5.4-7.1v7.1h-2.9v-11.8h2.7l5.4,7.1V642.7z"/>
		<path d="M403.8,642.7h3.1v9.2h5v2.6h-8.1V642.7z"/>
		<path d="M422.2,643.3c1,0.5,1.7,1.3,2.3,2.2c0.6,0.9,0.8,2,0.8,3.1c0,1.2-0.3,2.2-0.8,3.1s-1.3,1.7-2.3,2.2s-2.1,0.8-3.3,0.8
			s-2.3-0.3-3.3-0.8s-1.7-1.3-2.3-2.2s-0.8-2-0.8-3.1s0.3-2.2,0.8-3.1c0.6-0.9,1.3-1.6,2.3-2.2c1-0.5,2.1-0.8,3.3-0.8
			S421.2,642.8,422.2,643.3z M417.4,645.6c-0.5,0.3-0.9,0.7-1.2,1.3s-0.4,1.1-0.4,1.8s0.1,1.2,0.4,1.8s0.7,1,1.2,1.3s1,0.5,1.6,0.5
			s1.1-0.2,1.6-0.5s0.9-0.7,1.2-1.3c0.3-0.5,0.4-1.1,0.4-1.8c0-0.6-0.1-1.2-0.4-1.8c-0.3-0.5-0.7-1-1.2-1.3s-1-0.5-1.6-0.5
			S417.9,645.3,417.4,645.6z"/>
		<path d="M435.2,654.5l-0.8-2.1h-5.1l-0.8,2.1h-3.2l5.1-11.8h3.2l5,11.8H435.2z M430.2,650.1h3.3l-1.6-4.2L430.2,650.1z"/>
		<path d="M447.9,643.4c0.9,0.5,1.7,1.2,2.2,2.1c0.5,0.9,0.8,1.9,0.8,3.1c0,1.2-0.3,2.2-0.8,3.1c-0.5,0.9-1.3,1.6-2.3,2.1
			s-2.1,0.7-3.3,0.7h-5v-11.8h5.1C445.9,642.7,447,642.9,447.9,643.4z M446.3,651.6c0.5-0.3,0.8-0.7,1.1-1.2
			c0.3-0.5,0.4-1.1,0.4-1.8s-0.1-1.3-0.4-1.8s-0.7-0.9-1.1-1.2s-1-0.4-1.7-0.4h-1.9v6.8h2.1C445.3,652,445.9,651.9,446.3,651.6z"/>
		<path d="M454,652.1c0.3,0.3,0.4,0.6,0.4,1s-0.1,0.8-0.4,1.1s-0.6,0.4-1,0.4s-0.8-0.1-1-0.4c-0.3-0.3-0.4-0.6-0.4-1.1
			c0-0.4,0.1-0.8,0.4-1c0.3-0.3,0.6-0.4,1-0.4S453.8,651.9,454,652.1z"/>
		<path d="M463.4,645.6c-0.5-0.3-1-0.4-1.6-0.4s-1.1,0.1-1.6,0.4c-0.5,0.3-0.9,0.7-1.2,1.2c-0.3,0.5-0.4,1.1-0.4,1.7
			c0,0.6,0.1,1.2,0.4,1.7s0.7,0.9,1.2,1.2s1,0.4,1.6,0.4c0.5,0,1-0.1,1.5-0.4c0.5-0.2,1-0.6,1.4-1l1.8,1.9c-0.6,0.7-1.4,1.2-2.3,1.6
			c-0.9,0.4-1.8,0.6-2.6,0.6c-1.2,0-2.2-0.3-3.2-0.8s-1.7-1.3-2.2-2.2s-0.8-2-0.8-3.1s0.3-2.2,0.8-3.1c0.5-0.9,1.3-1.6,2.3-2.2
			c1-0.5,2-0.8,3.2-0.8c0.9,0,1.7,0.2,2.6,0.5c0.9,0.4,1.6,0.9,2.2,1.5l-1.8,2.2C464.4,646.2,463.9,645.8,463.4,645.6z"/>
		<path d="M476.5,643.3c1,0.5,1.7,1.3,2.3,2.2c0.6,0.9,0.8,2,0.8,3.1c0,1.2-0.3,2.2-0.8,3.1s-1.3,1.7-2.3,2.2s-2.1,0.8-3.3,0.8
			c-1.2,0-2.3-0.3-3.3-0.8s-1.7-1.3-2.3-2.2s-0.8-2-0.8-3.1s0.3-2.2,0.8-3.1c0.6-0.9,1.3-1.6,2.3-2.2c1-0.5,2.1-0.8,3.3-0.8
			C474.5,642.5,475.6,642.8,476.5,643.3z M471.7,645.6c-0.5,0.3-0.9,0.7-1.2,1.3s-0.4,1.1-0.4,1.8s0.1,1.2,0.4,1.8
			c0.3,0.5,0.7,1,1.2,1.3s1,0.5,1.6,0.5s1.1-0.2,1.6-0.5s0.9-0.7,1.2-1.3c0.3-0.5,0.4-1.1,0.4-1.8c0-0.6-0.1-1.2-0.4-1.8
			c-0.3-0.5-0.7-1-1.2-1.3s-1-0.5-1.6-0.5S472.2,645.3,471.7,645.6z"/>
		<path d="M481.2,642.7h3.4l3.4,6.9l3.4-6.9h3.4v11.8H492V647l-3,6.3h-2l-3-6.3v7.5h-2.7L481.2,642.7L481.2,642.7z"/>
	</g>
</g>
<path class="st1" d="M405.2,191.5c3.9-3.1,6.8-6.7,10-10c1.4-1.5,2.6-2.5,4.5-0.5c1.9,1.8,1.9,3.1,0.1,4.9
	c-3.9,3.9-7.6,7.9-11.3,11.8c-1.4,1.5-3.1,2.9-1.9,5.1c1.2,2.1,3.1,0.8,4.7,0.6c4.3-0.6,8.7-1.4,13-2.3c2.2-0.4,3.2,0.3,3.5,2.5
	c0.3,2.1,0.1,3.2-2.3,3.6c-4.7,0.7-9.4,1.9-14.2,2.6c-2.8,0.4-3.9,1.6-3.5,4.5c3.4,29.2,2.8,58.6,2.2,87.9
	c-0.5,20.5-1.7,41-2.7,61.5c-0.2,3.6-0.4,7.2,0.5,10.7c0.8,2.7,1.7,5.6,4.9,6.3c3.3,0.8,5.6-1.2,7.5-3.6c3.6-4.6,5.5-10,6.7-15.7
	c2.1-9.9,1.1-20,2.4-29.9c1.1-8.2,3.1-16.2,7.2-23.6c3.3-5.9,7.7-10.6,13.9-13.3c2.4-1.1,2.8-2.3,2.1-4.6c-1.3-4.7-2.4-9.6-3.7-14.3
	c-0.7-2.4,0.4-3.3,2.5-4c2.5-0.8,3.1,0.6,3.5,2.5c1.1,4.4,2.1,8.8,3.4,13.2c0.5,1.8-0.1,4.5,3.1,4.8c3.1,0.2,4.1-1.6,5-4
	c1.5-4.3,3.4-8.4,5-12.6c0.8-2,1.8-2.7,3.9-1.8c2,0.9,3,1.8,2,4.2c-1.9,4.3-3.5,8.7-5.3,13c-0.6,1.5-1,2.6,0.9,3.6
	c9.4,4.9,13.6,13.5,16.4,23.1c1.5,5.3,1.5,5.3,6,1.8c2.2-1.7,4.5-3.3,6.7-5.1c1.8-1.5,3-1,4.3,0.7c1.2,1.6,1.6,2.9-0.4,4.3
	c-3.8,2.7-7.5,5.6-11.2,8.4c-1.2,0.9-2.5,1.8-2,3.5c0.5,2,2.3,1.5,3.7,1.6c3.3,0.2,6.7,0.4,10,0.5c2.3,0.1,3,1.2,2.9,3.3
	c-0.1,2.1-1.2,2.7-3.1,2.7c-3.2-0.1-6.4,0-9.6-0.1c-2.1,0-3.3,0.7-3.1,3c0.9,12.8,0.3,25.6-0.6,38.3c0,0.2,0.2,0.5,0.3,0.8
	c2,0.1,3.4-1.4,5-2.2c2-1.1,3.6-1.5,4.9,1c1.3,2.4,0.2,3.3-1.7,4.3c-2.6,1.4-5,3-7.6,4.4c-1.3,0.7-2.1,1.7-1.9,3.2
	c0.2,1.5,1.4,1.8,2.6,2.1c2.7,0.6,5.5,1.3,8.2,1.8c2.3,0.4,2.7,1.6,2.2,3.7c-0.5,2.1-1.5,2.9-3.7,2.4c-2.3-0.6-4.7-0.9-7-1.6
	c-3-0.9-4.1,0.2-4.3,3.2c-1,15-10,23.1-23.5,27.6c-3.9,1.3-7.8,2.6-11.9,3.4c-10.5,1.8-21,3.5-31.6,5.3c-2.5,0.4-5,0.9-7.4,1.6
	c-10.6,3-14.2,7.4-14.9,18.4c-0.4,5.5,0.3,10.9,0.7,16.4c0.2,2.7,1.5,2.7,3.4,1.7c4.6-2.2,9.2-4.2,13.8-6.4c2-1,3.3-1.1,4.5,1.2
	c1.1,2.3,0.2,3.4-1.8,4.3c-5.2,2.4-10.4,4.9-16.2,7.6c4,1.8,7.7,1.4,11.2,2.1c2.1,0.4,4.2,0.6,6.3,0.8c2.4,0.2,3.7,1,3.3,3.7
	c-0.3,2.7-1.9,2.7-4,2.4c-5-0.7-10.1-1.2-15.1-1.8c-2.6-0.4-3.6,0.5-3.3,3.2c0.7,7,1.1,14.1,1.8,21.1c1,10.1-4.3,16-12.6,20.1
	c-7.7,3.8-15.9,5.5-24.3,6.3c-16.8,1.6-33.6,1.2-49.9-3.8c-17.1-5.3-16.3-5.6-18.7-22.2c-2-14-2.4-28.1-2.8-42.3
	c-0.8-25.3-0.7-50.7-0.3-76c0.1-7.6-3.7-11.8-9.9-14.8c-6.8-3.3-14.3-3.1-21.6-3.6c-7.6-0.6-14.7-2.4-21.3-6.2
	c-2.3-1.3-3.8-1-5.4,1.1c-3.1,4.1-6.5,8.1-9.7,12.2c-1.4,1.8-2.6,2.9-4.9,1.1c-2.5-1.9-1.5-3.5,0.1-5.3c3.2-3.8,6.2-7.7,9.4-11.4
	c1.5-1.8,2.9-3.3,0.7-5.8c-2.1-2.4-3.7-1.5-5.8-0.2c-4.5,2.9-9.2,5.4-13.7,8.3c-2.1,1.3-3.5,1.2-4.8-1.1c-1.4-2.4-0.2-3.3,1.6-4.4
	c4.8-2.8,9.6-5.8,14.5-8.5c2.2-1.3,2.9-2.7,2-5.2c-5.4-15.2-8.3-30.9-10-46.8c-0.5-4.8-1-5-5.8-4.4c-4.8,0.5-9.6,0.8-14.3,1.3
	c-2.5,0.3-3.7-0.5-3.8-3.2c-0.2-2.9,1.8-2.9,3.6-3.1c5-0.5,10.1-0.8,15.1-1.3c1.6-0.2,3.7,0,4-2.5c0.3-2.4-1.2-3.3-3.1-4
	c-5.1-2.1-10.1-4.2-15.1-6.3c-2.1-0.9-3.4-1.9-2.3-4.5c1.1-2.7,2.8-2.2,4.8-1.3c3.9,1.7,7.9,3.2,11.8,4.9c2.8,1.3,3.8,0.7,3.8-2.5
	c0-8.9,0.6-17.9,2.4-26.6c1.9-9,5.4-17.1,13.2-22.6c8.5-6,17.7-6.4,26.8-1.7c3,1.6,4.2,1,5.3-1.9c1.7-4.1,3.7-8,5.4-12.1
	c0.9-2.3,2.2-2.2,4.1-1.4c2,0.9,2.7,1.9,1.7,4c-2.3,4.8-4.4,9.7-6.7,14.5c-0.9,2-1.4,3.9,0.6,5.4c1.9,1.4,2.8-0.7,4-1.6
	c3-2.2,6.1-4.3,8.9-6.7c2.1-1.8,3.4-1.2,4.9,0.7c1.6,1.9,0.7,3-0.9,4.2c-3.4,2.5-6.8,5.2-10.2,7.7c-2.2,1.6-2.9,3.3-2.3,6.1
	c2,8.9,0.8,18.1,1.6,27.1c0.9,9.4,1.7,18.8,4.4,28c0.8,2.7,1.7,5.3,3.3,7.7c3.6,5.4,9.1,5.3,12.4-0.4c2.7-4.8,2.9-10.2,3.1-15.5
	c0.7-19.1-1.2-38.1-1.8-57.1c-0.6-16.7-0.6-33.3,2.4-49.8c0.5-2.7-0.3-4-2.6-4.9c-6.3-2.6-12.5-5.3-18.8-8c-1.9-0.8-3.7-1.5-2.5-4.3
	c1.2-2.8,2.9-2.5,5.1-1.5c5.2,2.3,10.4,4.6,16.3,6.1c-3.3-4.8-6.5-9.5-9.8-14.3c-0.7-1.1-2-2.1-1.4-3.5c0.6-1.4,1.9-2.3,3.3-2.7
	c1.6-0.5,2,1,2.7,1.9c3.7,5.3,7.4,10.7,11.3,16.3c2.6-2.2,3.4-5.1,4.8-7.5c4.8-7.9,10.8-14.6,18.7-19.4c2.7-1.6,3.3-3.4,2-6.2
	c-2.1-4.6-3.9-9.4-5.8-14c-0.8-2-1.5-3.6,1.3-4.8c3-1.3,3.8,0.4,4.6,2.6c2,4.9,4.1,9.9,6.2,14.8c0.4,1,0.7,2.7,2.3,2.3
	c1.5-0.4,1-2,1-3.1c0-6,0.1-12,0-18c0-2.4,0.5-3.8,3.3-3.8c2.8,0.1,2.7,1.8,2.7,3.8c0,5.6,0.2,11.2,0.2,16.8c0,2.6,1.1,3.2,3.5,3
	c9.3-1,18,1.1,26.4,4.8c2.9,1.3,4.3,0.8,5.6-2c2.2-4.7,4.7-9.3,6.9-14c1.1-2.2,2.4-2.4,4.5-1.4c2.2,1.1,2,2.4,1.1,4.2
	c-2.5,4.9-4.9,9.8-7.3,14.7c-0.7,1.4-1.9,3-0.2,4.3c1.6,1.2,2.7-0.5,3.7-1.4c3.4-2.8,6.6-5.8,9.9-8.7c1.5-1.3,2.7-1.5,4,0.2
	c1.2,1.5,2.2,2.8,0.3,4.4c-3.3,2.9-6.5,5.9-9.8,8.8c-1.3,1.2-2.1,2.3-0.8,4.1c6.2,8.6,9.1,18.6,11.6,28.7
	C403.8,188.4,403.9,189.9,405.2,191.5z"/>
</svg>
